<!DOCTYPE svg PUBLIC "-//W3C//DTD SVG 1.1//EN" "http://www.w3.org/Graphics/SVG/1.1/DTD/svg11.dtd">
<!-- Uploaded to: SVG Repo, www.svgrepo.com, Transformed by: SVG Repo Mixer Tools -->
<svg version="1.1" id="Layer_1" xmlns="http://www.w3.org/2000/svg" xmlns:xlink="http://www.w3.org/1999/xlink" viewBox="0 0 512 512" xml:space="preserve" width="256px" height="256px" fill="#000000">
<g id="SVGRepo_bgCarrier" stroke-width="0"/>
<g id="SVGRepo_tracerCarrier" stroke-linecap="round" stroke-linejoin="round"/>
<g id="SVGRepo_iconCarrier"> <path d="M445.512,398.432H66.488C29.92,398.432,0,368.512,0,331.944V95.856c0-36.568,29.92-66.488,66.488-66.488h379.024 c36.568,0,66.488,29.92,66.488,66.488v236.088C512,368.512,482.08,398.432,445.512,398.432z"/> <rect y="102.048" style="fill:#e7cb13;" width="512" height="85.336"/> <path style="fill:#18c335;" d="M346.016,482.632v-26.664c-18.824-0.848-37.072-5.904-47.752-12.072l8.44-32.864 c11.8,6.448,28.36,12.352,46.632,12.352c16.008,0,26.968-6.176,26.968-17.408c0-10.68-8.992-17.424-29.776-24.448 c-30.056-10.112-50.568-24.152-50.568-51.392c0-24.72,17.424-44.096,47.48-49.992V253.44h27.512v24.72 c18.824,0.848,31.472,4.76,40.736,9.264l-8.144,31.744c-7.296-3.088-20.216-9.56-40.456-9.56c-18.248,0-24.152,7.864-24.152,15.736 c0,9.264,9.832,15.16,33.712,24.152c33.416,11.8,46.912,27.24,46.912,52.536c0,25-17.704,46.336-49.992,51.96v28.632h-27.552 V482.632z"/> <path style="fill:#FF583E;" d="M243.888,463.56c-10.752,6-29.08,12.008-49.312,12.008c-30.984,0-59.416-12.656-77.12-36.032 c-8.552-10.752-14.856-24.336-17.704-41.088H79.184v-22.456h17.384c0-1.576,0-3.48,0-5.376c0-3.152,0.32-6.304,0.32-9.48H79.184 v-22.432h21.184c4.104-17.08,11.704-31.608,21.808-43.312c18.032-20.232,43.312-32.232,73.024-32.232 c19.28,0,36.032,4.424,47.416,9.48l-8.856,36.032c-8.208-3.48-21.16-7.6-35.088-7.6c-15.16,0-29.08,5.072-38.864,17.08 c-4.424,5.056-7.904,12.328-10.128,20.552h78.72v22.432h-83.464c-0.304,3.176-0.304,6.648-0.304,9.8c0,1.904,0,3.152,0,5.056h83.776 v22.456h-79.344c2.2,9.48,5.68,16.752,10.432,22.128c10.104,11.376,24.984,16.104,40.784,16.104c14.528,0,29.384-4.728,36.032-8.208 L243.888,463.56z"/> </g>
</svg>